<svg xmlns="http://www.w3.org/2000/svg" width="27" height="22" viewBox="0 0 27 22" fill="none">
  <path fill-rule="evenodd" clip-rule="evenodd" d="M5.53906 8C5.53906 7.44772 5.98678 7 6.53906 7H19.5391C20.0913 7 20.5391 7.44772 20.5391 8C20.5391 8.55229 20.0913 9 19.5391 9H6.53906C5.98678 9 5.53906 8.55229 5.53906 8Z" fill="white"/>
  <path fill-rule="evenodd" clip-rule="evenodd" d="M5.53906 12C5.53906 11.4477 5.98678 11 6.53906 11H19.5391C20.0913 11 20.5391 11.4477 20.5391 12C20.5391 12.5523 20.0913 13 19.5391 13H6.53906C5.98678 13 5.53906 12.5523 5.53906 12Z" fill="white"/>
  <path fill-rule="evenodd" clip-rule="evenodd" d="M0.624849 0.585787C0.999921 0.210714 1.50863 0 2.03906 0H24.0391C24.5695 0 25.0782 0.210714 25.4533 0.585787C25.8284 0.960861 26.0391 1.46957 26.0391 2V21C26.0391 21.3466 25.8596 21.6684 25.5648 21.8507C25.27 22.0329 24.9018 22.0494 24.5918 21.8944L21.0391 20.118L17.4863 21.8944C17.2047 22.0352 16.8734 22.0352 16.5919 21.8944L13.0391 20.118L9.48628 21.8944C9.20475 22.0352 8.87338 22.0352 8.59185 21.8944L5.03906 20.118L1.48628 21.8944C1.17629 22.0494 0.808148 22.0329 0.513331 21.8507C0.218515 21.6684 0.0390625 21.3466 0.0390625 21V2C0.0390625 1.46957 0.249777 0.960859 0.624849 0.585787ZM24.0391 2L2.03906 2L2.03906 19.382L4.59185 18.1056C4.87338 17.9648 5.20475 17.9648 5.48628 18.1056L9.03906 19.882L12.5918 18.1056C12.8734 17.9648 13.2047 17.9648 13.4863 18.1056L17.0391 19.882L20.5918 18.1056C20.8734 17.9648 21.2047 17.9648 21.4863 18.1056L24.0391 19.382V2Z" fill="white"/>
</svg>